<mxfile host="app.diagrams.net" modified="2023-05-25T11:57:54.736Z" agent="Mozilla/5.0 (Macintosh; Intel Mac OS X 10_15_7) AppleWebKit/537.36 (KHTML, like Gecko) Chrome/111.0.0.0 Safari/537.36" version="21.1.1" etag="95h0rg7usvfM0e8Alf5s" type="github">
  <diagram name="第 1 页" id="ovAe99_EPNH-0QUuSxY2">
    <mxGraphModel>
      <root>
        <mxCell id="0" />
        <mxCell id="1" parent="0" />
      </root>
    </mxGraphModel>
  </diagram>
</mxfile>
